HIERARCHY
ROOT SpineBase
{
  OFFSET 0.000000 0.000000 0.000000
  CHANNELS 6 Xposition Yposition Zposition Zrotation Xrotation Yrotation
  JOINT SpineMid
  {
    OFFSET 0.000000 30.712541 0.000000
    CHANNELS 3 Zrotation Xrotation Yrotation
    JOINT SpineShoulder
    {
      OFFSET -0.112442 22.852744 -0.691282
      CHANNELS 3 Zrotation Xrotation Yrotation
      JOINT Neck
      {
        OFFSET -0.070158 7.571904 -0.535564
        CHANNELS 3 Zrotation Xrotation Yrotation
        JOINT Head
        {
          OFFSET -6.120571 12.615561 1.345787
          CHANNELS 3 Zrotation Xrotation Yrotation
          End Site
          {
            OFFSET 0 0 0
          }
        }
      }
      JOINT ShoulderLeft
      {
        OFFSET -12.573112 -5.080166 11.634731
        CHANNELS 3 Zrotation Xrotation Yrotation
        JOINT ElbowLeft
        {
          OFFSET -0.149109 -27.182560 1.773675
          CHANNELS 3 Zrotation Xrotation Yrotation
          JOINT WristLeft
          {
            OFFSET -1.186096 -21.338234 -5.858501
            CHANNELS 3 Zrotation Xrotation Yrotation
            JOINT HandLeft
            {
              OFFSET 0.118953 -3.098529 -1.046635
              CHANNELS 3 Zrotation Xrotation Yrotation
              JOINT HandTipLeft
              {
                OFFSET 1.096026 -3.679409 -2.152644
                CHANNELS 3 Zrotation Xrotation Yrotation
                End Site
                {
                  OFFSET 0 0 0
                }
              }
              JOINT ThumbLeft
              {
                OFFSET 1.839212 2.991832 -4.758499
                CHANNELS 3 Zrotation Xrotation Yrotation
                End Site
                {
                  OFFSET 0 0 0
                }
              }
            }
          }
        }
      }
      JOINT ShoulderRight
      {
        OFFSET 9.894640 -2.674989 -11.897985
        CHANNELS 3 Zrotation Xrotation Yrotation
        JOINT ElbowRight
        {
          OFFSET 6.199450 -21.987463 -5.306844
          CHANNELS 3 Zrotation Xrotation Yrotation
          JOINT WristRight
          {
            OFFSET -2.757505 -20.814918 -5.232409
            CHANNELS 3 Zrotation Xrotation Yrotation
            JOINT HandRight
            {
              OFFSET -0.607407 -6.791899 -1.003834
              CHANNELS 3 Zrotation Xrotation Yrotation
              JOINT HandTipRight
              {
                OFFSET -0.656799 -6.457030 -0.050517
                CHANNELS 3 Zrotation Xrotation Yrotation
                End Site
                {
                  OFFSET 0 0 0
                }
              }
              JOINT ThumbRight
              {
                OFFSET 1.971981 -1.053460 -3.214387
                CHANNELS 3 Zrotation Xrotation Yrotation
                End Site
                {
                  OFFSET 0 0 0
                }
              }
            }
          }
        }
      }
    }
  }
  JOINT HipLeft
  {
    OFFSET -5.296381 -0.171846 0.750354
    CHANNELS 3 Zrotation Xrotation Yrotation
    JOINT KneeLeft
    {
      OFFSET 2.775422 -25.870486 2.190895
      CHANNELS 3 Zrotation Xrotation Yrotation
      JOINT AnkleLeft
      {
        OFFSET 2.694140 -29.704089 6.083309
        CHANNELS 3 Zrotation Xrotation Yrotation
        JOINT FootLeft
        {
          OFFSET -3.204691 -6.903134 -3.285634
          CHANNELS 3 Zrotation Xrotation Yrotation
          End Site
          {
            OFFSET 0 0 0
          }
        }
      }
    }
  }
  JOINT HipRight
  {
    OFFSET 5.002385 1.934533 -7.591645
    CHANNELS 3 Zrotation Xrotation Yrotation
    JOINT KneeRight
    {
      OFFSET 9.187969 -22.218854 -5.708521
      CHANNELS 3 Zrotation Xrotation Yrotation
      JOINT AnkleRight
      {
        OFFSET 11.049157 -31.696133 3.638463
        CHANNELS 3 Zrotation Xrotation Yrotation
        JOINT FootRight
        {
          OFFSET -3.294214 -5.702847 -6.443740
          CHANNELS 3 Zrotation Xrotation Yrotation
          End Site
          {
            OFFSET 0 0 0
          }
        }
      }
    }
  }
}
MOTION
Frames: 9
Frame Time: 0.033333
12.485161 65.573578 364.063906 -0.012620 -0.608117 30.339433 0.318074 0.518457 -30.340939 -0.460859 -0.961290 -0.045345 -12.951424 -5.407362 -2.281676 0.000000 0.000000 0.000000 -2.730852 -9.070049 -0.340510 2.643628 4.633912 0.390907 -21.680095 7.192836 9.628377 5.112067 -21.787953 -8.010252 0.000000 0.000000 0.000000 0.000000 0.000000 0.000000 0.733080 -8.089213 -2.615641 -2.608578 15.883126 2.609695 -8.513987 -6.529474 0.877705 5.729816 21.384571 -2.806496 0.000000 0.000000 0.000000 0.000000 0.000000 0.000000 -0.646849 -1.346919 -30.563300 3.257284 2.943502 0.835346 -6.776565 22.171819 -8.308081 0.000000 0.000000 0.000000 0.353094 -0.244243 -30.712633 0.646933 1.963041 0.931601 1.651924 0.747383 -4.826347 0.000000 0.000000 0.000000
12.633838 65.650212 363.975631 -0.219474 -0.672104 28.191327 -0.344418 -0.060989 -28.210918 -0.305185 -0.205234 -0.046390 -16.189253 -6.763913 -3.015788 0.000000 0.000000 0.000000 -4.320755 -9.665268 -0.597584 4.524234 5.223176 0.337142 -21.173214 8.008399 9.574175 4.430041 -20.927654 -7.004912 0.000000 0.000000 0.000000 0.000000 0.000000 0.000000 0.032505 -9.125282 -2.761846 -0.591415 17.237228 2.155388 -8.984693 -5.805228 1.043137 4.839923 19.938354 -2.548304 0.000000 0.000000 0.000000 0.000000 0.000000 0.000000 -0.840448 -1.671430 -28.495449 3.544621 3.353346 0.873935 -7.833379 28.827784 -10.010170 0.000000 0.000000 0.000000 -0.164792 -0.103167 -28.459879 1.179394 2.300217 0.847715 9.718720 -11.584508 -6.628226 0.000000 0.000000 0.000000
12.885783 65.767596 363.881964 -0.378915 -0.766781 25.870076 -0.393701 -0.141453 -25.897677 -0.274625 -0.219780 -0.052490 -19.426702 -8.488615 -4.178562 0.000000 0.000000 0.000000 -5.876627 -9.510990 -0.805954 6.406273 4.946847 0.221530 -21.818820 8.159424 9.915885 5.231548 -19.473382 -6.444843 0.000000 0.000000 0.000000 0.000000 0.000000 0.000000 -0.991277 -9.933505 -2.863099 2.578914 18.097554 1.108390 -10.782315 -4.620846 1.398338 5.597277 19.989875 -2.655261 0.000000 0.000000 0.000000 0.000000 0.000000 0.000000 -1.249651 -1.912921 -26.280483 4.054381 3.855610 0.928509 -7.700897 31.284414 -10.980189 0.000000 0.000000 0.000000 -0.984754 0.047250 -26.015372 1.933930 2.832771 0.770906 14.348211 -18.145889 -7.359749 0.000000 0.000000 0.000000
13.181671 65.906726 363.815564 -0.616368 -0.942305 23.163320 -0.485549 -0.141922 -23.204175 -0.306483 -0.206746 -0.068772 -24.553600 -9.141293 -4.571705 0.000000 0.000000 0.000000 -7.477357 -9.227858 -1.019287 8.236814 3.816560 0.276209 -21.403258 8.252283 9.876799 7.729794 -19.140309 -7.608548 0.000000 0.000000 0.000000 0.000000 0.000000 0.000000 -1.513957 -10.638911 -2.974901 5.589519 18.584037 0.026898 -11.921165 -3.299480 1.742249 5.750000 20.130042 -2.694916 0.000000 0.000000 0.000000 0.000000 0.000000 0.000000 -1.752266 -2.309269 -23.726867 4.744466 4.622636 1.001036 -6.498345 29.854784 -11.354726 0.000000 0.000000 0.000000 -1.695122 0.279268 -23.124582 2.694990 3.267495 0.643984 15.298328 -17.845638 -8.736886 0.000000 0.000000 0.000000
13.480591 66.002562 363.717419 -0.981929 -1.123536 20.281750 -0.629688 -0.095973 -20.342676 -0.314664 -0.163084 -0.090917 -29.705486 -8.766801 -4.073677 0.000000 0.000000 0.000000 -9.201844 -8.971199 -1.255148 9.833258 2.358557 0.549729 -19.692815 6.274984 8.913519 8.539008 -19.612936 -9.813842 0.000000 0.000000 0.000000 0.000000 0.000000 0.000000 -1.498934 -11.217859 -3.085026 8.342609 18.755261 -1.062935 -13.233883 -1.738505 2.097027 6.254308 18.536884 -2.619470 0.000000 0.000000 0.000000 0.000000 0.000000 0.000000 -2.078078 -2.889269 -21.015046 5.458809 5.396601 1.067728 -4.658010 19.640336 -8.808517 0.000000 0.000000 0.000000 -2.195712 0.464224 -20.036444 3.415852 3.489004 0.463810 12.711389 -10.639202 -10.639399 0.000000 0.000000 0.000000
13.832215 66.028833 363.610032 -1.481242 -1.315038 17.854412 -0.611842 -0.073881 -17.938177 -0.209439 -0.190694 -0.106788 -34.716100 -7.940310 -3.055377 0.000000 0.000000 0.000000 -11.084229 -8.363178 -1.443841 11.253427 -0.648625 0.965106 -20.281166 9.763906 10.293411 12.194309 -23.331903 -12.758981 0.000000 0.000000 0.000000 0.000000 0.000000 0.000000 -0.118969 -11.814448 -3.457241 9.171637 18.780025 -1.437837 -14.024309 0.583166 2.352989 4.804216 17.646245 -2.327970 0.000000 0.000000 0.000000 0.000000 0.000000 0.000000 -1.936746 -3.794041 -18.756045 5.450406 6.487352 1.088693 0.058018 14.244418 -9.358430 0.000000 0.000000 0.000000 -2.621911 0.589640 -17.397911 4.266474 3.596814 0.240848 7.139157 2.600968 -11.509536 0.000000 0.000000 0.000000
14.132901 66.054931 363.340378 -2.403414 -1.201494 14.377330 -0.989084 0.263594 -14.498864 -0.373460 0.036922 -0.164806 -38.399672 -6.837789 -1.332805 0.000000 0.000000 0.000000 -13.110669 -9.183283 -1.997795 14.149790 -2.430731 1.151513 -19.743474 10.020728 10.380841 9.287916 -25.460723 -14.019341 0.000000 0.000000 0.000000 0.000000 0.000000 0.000000 1.068964 -12.479088 -3.347570 11.335363 18.269103 -2.369378 -14.697314 3.222107 2.506699 4.612114 16.597768 -2.166991 0.000000 0.000000 0.000000 0.000000 0.000000 0.000000 -1.611863 -5.090989 -15.510714 5.785446 7.243827 1.101937 2.016801 13.155569 -9.782756 0.000000 0.000000 0.000000 -2.548421 0.249733 -13.756053 4.976323 3.505045 -0.002663 5.016216 11.338354 -13.014596 0.000000 0.000000 0.000000
14.371007 66.059893 362.862797 -3.598472 -0.657801 10.923711 -1.477264 0.525647 -11.079218 -0.576469 0.307254 -0.230911 -41.524198 -5.290371 1.202070 0.000000 0.000000 0.000000 -16.074243 -11.041932 -3.062576 18.590488 -1.574303 0.985341 -18.653487 6.265089 9.115085 5.094276 -24.183149 -13.618537 0.000000 0.000000 0.000000 0.000000 0.000000 0.000000 1.556735 -12.683778 -2.775793 14.113147 17.077101 -3.519338 -15.103438 6.098901 2.509688 4.037684 14.086791 -1.815999 0.000000 0.000000 0.000000 0.000000 0.000000 0.000000 -1.136392 -6.653559 -12.308206 6.334357 7.584628 1.093059 3.111409 14.021940 -10.441227 0.000000 0.000000 0.000000 -2.188723 -0.695965 -10.246786 5.649572 3.416777 -0.213451 3.998259 18.474681 -14.667887 0.000000 0.000000 0.000000
14.499426 66.116170 362.268928 -5.078076 0.195600 7.777706 -1.974878 0.778076 -7.949682 -0.682791 0.559934 -0.295849 -43.762719 -3.545898 4.246516 0.000000 0.000000 0.000000 -20.498997 -15.420778 -5.339480 24.869598 4.123949 -0.081807 -16.055611 4.565431 7.244844 -1.500740 -24.382173 -10.597391 0.000000 0.000000 0.000000 0.000000 0.000000 0.000000 1.421756 -13.162695 -2.085153 16.911252 15.771941 -4.497617 -14.120669 9.826589 2.159407 3.946562 8.487453 -1.093928 0.000000 0.000000 0.000000 0.000000 0.000000 0.000000 -0.305358 -8.474200 -9.405178 6.992954 7.865140 1.079300 2.818024 17.982468 -11.698222 0.000000 0.000000 0.000000 -1.363477 -2.119178 -7.165006 6.263093 3.463792 -0.328970 3.771304 23.686083 -16.353145 0.000000 0.000000 0.000000
